<?xml version="1.0" encoding="UTF-8"?>
<!DOCTYPE svg PUBLIC "-//W3C//DTD SVG 1.1//EN" "http://www.w3.org/Graphics/SVG/1.1/DTD/svg11.dtd">
<svg xmlns="http://www.w3.org/2000/svg" version="1.1" width="512px" height="512px" style="shape-rendering:geometricPrecision; text-rendering:geometricPrecision; image-rendering:optimizeQuality; fill-rule:evenodd; clip-rule:evenodd" xmlns:xlink="http://www.w3.org/1999/xlink">
<g><path style="opacity:0.952" fill="#040302" d="M 262.5,93.5 C 275.586,91.9583 284.252,97.2916 288.5,109.5C 287.729,112.877 286.062,115.711 283.5,118C 294.339,115.96 304.006,118.46 312.5,125.5C 327.277,145.473 347.11,156.14 372,157.5C 372.758,159.769 372.591,161.936 371.5,164C 364.122,166.68 356.789,169.347 349.5,172C 374.319,185.767 389.819,206.601 396,234.5C 397.586,244.104 398.586,253.771 399,263.5C 402,265.833 405,268.167 408,270.5C 429.041,234.917 450.207,199.417 471.5,164C 472.833,163.333 474.167,163.333 475.5,164C 496.086,177.394 503.586,196.227 498,220.5C 495.94,225.62 493.607,230.62 491,235.5C 477,259.5 463,283.5 449,307.5C 446.162,311.035 442.995,311.368 439.5,308.5C 437.525,325.976 427.859,335.476 410.5,337C 401.403,345.386 392.237,345.553 383,337.5C 380.477,333.931 379.144,329.931 379,325.5C 367.795,341.203 353.628,353.536 336.5,362.5C 335.888,374.198 335.055,385.865 334,397.5C 328.7,411.776 318.366,418.443 303,417.5C 283.267,417.767 272.267,408.1 270,388.5C 269.501,384.848 269.335,381.182 269.5,377.5C 266.167,377.5 262.833,377.5 259.5,377.5C 260.266,409.308 244.933,422.142 213.5,416C 203.146,412.978 196.979,406.145 195,395.5C 193.816,384.542 193.149,373.542 193,362.5C 174.201,353.036 159.201,339.369 148,321.5C 146.311,335.526 138.478,341.693 124.5,340C 122.156,339.163 120.156,337.829 118.5,336C 95.1798,333.203 86.3465,320.37 92,297.5C 93.4394,294.397 95.2728,291.564 97.5,289C 96.2305,285.628 94.5639,282.461 92.5,279.5C 82.8333,284.333 73.1667,289.167 63.5,294C 61.2305,294.758 59.0639,294.591 57,293.5C 38.7876,258.747 23.6209,222.747 11.5,185.5C 11.3898,183.626 12.0564,182.126 13.5,181C 30.8223,175.004 48.1557,169.004 65.5,163C 74.2275,161.28 80.3942,164.447 84,172.5C 97.2297,203.958 110.73,235.292 124.5,266.5C 126.576,264.712 128.743,263.046 131,261.5C 129.557,221.872 145.724,192.039 179.5,172C 173.929,169.853 168.263,167.853 162.5,166C 159.833,163.667 159.833,161.333 162.5,159C 178.847,157.656 193.18,151.656 205.5,141C 211.167,134.667 216.833,128.333 222.5,122C 230.113,117.143 238.28,115.643 247,117.5C 250.448,108.24 255.615,100.24 262.5,93.5 Z"/></g>
<g><path style="opacity:1" fill="#008f3a" d="M 265.5,101.5 C 271.494,101.662 276.161,104.162 279.5,109C 272.952,109.894 268.285,107.394 265.5,101.5 Z"/></g>
<g><path style="opacity:1" fill="#8fddaf" d="M 264.5,113.5 C 256.991,124.042 254.325,135.708 256.5,148.5C 251.657,135.408 252.824,122.742 260,110.5C 261.958,110.209 263.458,111.209 264.5,113.5 Z"/></g>
<g><path style="opacity:1" fill="#0dc655" d="M 264.5,113.5 C 265.71,113.932 266.71,114.599 267.5,115.5C 267.034,120.666 265.867,125.666 264,130.5C 263.256,138.328 262.423,145.995 261.5,153.5C 259.5,152.167 257.833,150.5 256.5,148.5C 254.325,135.708 256.991,124.042 264.5,113.5 Z"/></g>
<g><path style="opacity:1" fill="#008838" d="M 267.5,115.5 C 269.812,116.32 272.146,117.153 274.5,118C 269.706,130.012 266.873,142.512 266,155.5C 263.892,156.612 262.392,155.946 261.5,153.5C 262.423,145.995 263.256,138.328 264,130.5C 265.867,125.666 267.034,120.666 267.5,115.5 Z"/></g>
<g><path style="opacity:1" fill="#fafdfb" d="M 240.5,134.5 C 238.883,135.038 237.216,135.371 235.5,135.5C 227.125,134.54 226.459,131.706 233.5,127C 236.993,125.996 240.159,126.496 243,128.5C 243.667,129.5 243.667,130.5 243,131.5C 241.955,132.373 241.122,133.373 240.5,134.5 Z"/></g>
<g><path style="opacity:1" fill="#90deb0" d="M 341.5,159.5 C 334.118,158.145 327.118,155.645 320.5,152C 313.833,147.333 307.167,142.667 300.5,138C 292.218,135.616 284.218,136.116 276.5,139.5C 278.041,127.872 284.707,123.372 296.5,126C 300.112,127.139 303.446,128.806 306.5,131C 315.957,143.372 327.624,152.872 341.5,159.5 Z"/></g>
<g><path style="opacity:1" fill="#fbfefc" d="M 287.5,126.5 C 292.242,126.136 296.408,127.47 300,130.5C 301.1,134.735 299.433,136.401 295,135.5C 288.129,135.814 285.629,132.814 287.5,126.5 Z"/></g>
<g><path style="opacity:1" fill="#91e0b1" d="M 245.5,134.5 C 243.833,134.5 242.167,134.5 240.5,134.5C 241.122,133.373 241.955,132.373 243,131.5C 243.667,130.5 243.667,129.5 243,128.5C 240.159,126.496 236.993,125.996 233.5,127C 226.459,131.706 227.125,134.54 235.5,135.5C 229.433,138.059 224.1,141.892 219.5,147C 210.839,153.664 201.172,158.164 190.5,160.5C 205.429,152.411 218.096,141.578 228.5,128C 233.77,125.004 239.437,123.838 245.5,124.5C 245.5,127.833 245.5,131.167 245.5,134.5 Z"/></g>
<g><path style="opacity:1" fill="#0abf52" d="M 240.5,134.5 C 242.167,134.5 243.833,134.5 245.5,134.5C 245.976,137.927 245.976,141.26 245.5,144.5C 240.889,143.39 236.222,143.223 231.5,144C 222.112,147.724 214.112,153.391 207.5,161C 201.833,164.004 195.833,165.337 189.5,165C 181.87,163.379 182.204,161.879 190.5,160.5C 201.172,158.164 210.839,153.664 219.5,147C 224.1,141.892 229.433,138.059 235.5,135.5C 237.216,135.371 238.883,135.038 240.5,134.5 Z"/></g>
<g><path style="opacity:1" fill="#07c353" d="M 341.5,159.5 C 344.311,159.826 346.978,160.659 349.5,162C 348.207,162.49 346.873,162.657 345.5,162.5C 340.203,163.275 334.87,163.608 329.5,163.5C 326.575,163.54 323.909,162.707 321.5,161C 312.125,148.812 299.791,142.812 284.5,143C 281.488,143.78 278.655,144.947 276,146.5C 275.297,144.071 275.463,141.738 276.5,139.5C 284.218,136.116 292.218,135.616 300.5,138C 307.167,142.667 313.833,147.333 320.5,152C 327.118,155.645 334.118,158.145 341.5,159.5 Z"/></g>
<g><path style="opacity:1" fill="#fbfefc" d="M 245.5,159.5 C 240.378,166.551 233.378,169.551 224.5,168.5C 221.176,166.519 220.676,163.852 223,160.5C 228.643,154.073 235.476,151.906 243.5,154C 245.155,155.444 245.822,157.278 245.5,159.5 Z"/></g>
<g><path style="opacity:1" fill="#fcfefd" d="M 306.5,168.5 C 297.132,170.162 289.798,167.162 284.5,159.5C 284.178,157.278 284.845,155.444 286.5,154C 294.01,152.394 300.51,154.227 306,159.5C 307.719,162.454 307.885,165.454 306.5,168.5 Z"/></g>
<g><path style="opacity:1" fill="#91dfb1" d="M 256.5,161.5 C 255.833,161.5 255.167,161.5 254.5,161.5C 251.781,160.087 248.781,159.42 245.5,159.5C 245.822,157.278 245.155,155.444 243.5,154C 235.476,151.906 228.643,154.073 223,160.5C 220.676,163.852 221.176,166.519 224.5,168.5C 221.86,168.954 219.527,170.121 217.5,172C 208.901,180.094 200.901,188.594 193.5,197.5C 200.945,180.557 211.945,166.391 226.5,155C 234.79,150.447 243.124,150.447 251.5,155C 253.79,156.777 255.457,158.944 256.5,161.5 Z"/></g>
<g><path style="opacity:1" fill="#08c754" d="M 245.5,159.5 C 248.781,159.42 251.781,160.087 254.5,161.5C 253.659,174.513 246.993,183.013 234.5,187C 218.701,187.754 205.034,193.254 193.5,203.5C 192.279,204.028 191.113,204.695 190,205.5C 190.329,202.505 191.496,199.838 193.5,197.5C 200.901,188.594 208.901,180.094 217.5,172C 219.527,170.121 221.86,168.954 224.5,168.5C 233.378,169.551 240.378,166.551 245.5,159.5 Z"/></g>
<g><path style="opacity:1" fill="#0bc754" d="M 284.5,159.5 C 289.798,167.162 297.132,170.162 306.5,168.5C 316.833,176.833 326.167,186.167 334.5,196.5C 336.266,199.188 337.933,202.021 339.5,205C 337.86,205.348 336.527,204.848 335.5,203.5C 329.863,198.674 323.53,194.841 316.5,192C 309.001,189.567 301.334,187.9 293.5,187C 281.626,182.626 275.293,174.126 274.5,161.5C 274.918,160.778 275.584,160.278 276.5,160C 279.146,159.503 281.813,159.336 284.5,159.5 Z"/></g>
<g><path style="opacity:1" fill="#92deb1" d="M 334.5,196.5 C 326.167,186.167 316.833,176.833 306.5,168.5C 307.885,165.454 307.719,162.454 306,159.5C 300.51,154.227 294.01,152.394 286.5,154C 284.845,155.444 284.178,157.278 284.5,159.5C 281.813,159.336 279.146,159.503 276.5,160C 275.584,160.278 274.918,160.778 274.5,161.5C 273.167,161.833 271.833,162.167 270.5,162.5C 278.818,150.254 289.485,147.754 302.5,155C 316.727,166.063 327.393,179.897 334.5,196.5 Z"/></g>
<g><path style="opacity:1" fill="#008939" d="M 254.5,161.5 C 255.167,161.5 255.833,161.5 256.5,161.5C 258.136,162.749 259.303,164.416 260,166.5C 261.938,179.8 256.771,188.967 244.5,194C 226.566,192.572 209.566,195.738 193.5,203.5C 205.034,193.254 218.701,187.754 234.5,187C 246.993,183.013 253.659,174.513 254.5,161.5 Z"/></g>
<g><path style="opacity:1" fill="#008838" d="M 274.5,161.5 C 275.293,174.126 281.626,182.626 293.5,187C 301.334,187.9 309.001,189.567 316.5,192C 323.53,194.841 329.863,198.674 335.5,203.5C 319.602,196.584 302.935,193.417 285.5,194C 270.144,188.454 265.144,177.954 270.5,162.5C 271.833,162.167 273.167,161.833 274.5,161.5 Z"/></g>
<g><path style="opacity:1" fill="#008437" d="M 345.5,162.5 C 342.31,164.176 338.81,165.176 335,165.5C 332.779,165.607 330.946,164.94 329.5,163.5C 334.87,163.608 340.203,163.275 345.5,162.5 Z"/></g>
<g><path style="opacity:1" fill="#bbbbbb" d="M 64.5,171.5 C 68.6034,170.769 72.1034,171.769 75,174.5C 87.029,202.725 99.1957,230.892 111.5,259C 111.355,259.772 111.022,260.439 110.5,261C 98.8333,266.833 87.1667,272.667 75.5,278.5C 60.0621,247.789 46.3955,216.289 34.5,184C 34.9054,183.055 35.572,182.388 36.5,182C 46.0484,178.766 55.3818,175.266 64.5,171.5 Z"/></g>
<g><path style="opacity:1" fill="#fc6246" d="M 187.5,191.5 C 161.487,201.534 147.153,220.534 144.5,248.5C 148.708,288.213 170.375,312.38 209.5,321C 218.5,321.667 227.5,321.667 236.5,321C 240.868,320.707 244.868,319.54 248.5,317.5C 264.914,320.445 280.58,318.278 295.5,311C 311.643,300.215 319.477,285.049 319,265.5C 310.585,264.517 302.085,264.183 293.5,264.5C 293.795,257.774 293.462,251.108 292.5,244.5C 293.949,243.828 295.282,243.161 296.5,242.5C 306.105,240.978 310.772,235.312 310.5,225.5C 310.965,219.764 308.799,215.431 304,212.5C 296.56,214.481 289.06,216.148 281.5,217.5C 273.504,210.177 265.17,203.177 256.5,196.5C 259.479,194.188 262.146,191.521 264.5,188.5C 268.702,194.607 274.369,198.773 281.5,201C 300.212,199.809 317.878,203.475 334.5,212C 339.755,215.251 344.422,219.251 348.5,224C 353.498,225.33 355.664,223.496 355,218.5C 348.808,203.114 341.308,188.448 332.5,174.5C 332.833,174.167 333.167,173.833 333.5,173.5C 338.193,175.847 342.86,178.18 347.5,180.5C 369.453,208.1 375.62,239.1 366,273.5C 354.593,307.241 332.093,330.074 298.5,342C 272.882,350.827 246.549,353.827 219.5,351C 204.318,349.038 189.651,345.205 175.5,339.5C 153.321,320.808 141.488,296.808 140,267.5C 136.318,222.58 154.985,191.247 196,173.5C 196.5,173.833 197,174.167 197.5,174.5C 193.903,180.03 190.57,185.696 187.5,191.5 Z"/></g>
<g><path style="opacity:1" fill="#bcbcbc" d="M 477.5,175.5 C 476.957,175.56 476.624,175.893 476.5,176.5C 487.938,193.756 488.438,211.423 478,229.5C 464.569,252.03 451.403,274.697 438.5,297.5C 429.825,292.163 421.159,286.83 412.5,281.5C 433.081,245.336 453.914,209.336 475,173.5C 475.995,174.066 476.828,174.733 477.5,175.5 Z"/></g>
<g><path style="opacity:1" fill="#f6f6f6" d="M 477.5,175.5 C 490.156,186.432 494.323,200.098 490,216.5C 488.885,220.729 487.219,224.729 485,228.5C 471,252.5 457,276.5 443,300.5C 441.385,299.614 439.885,298.614 438.5,297.5C 451.403,274.697 464.569,252.03 478,229.5C 488.438,211.423 487.938,193.756 476.5,176.5C 476.624,175.893 476.957,175.56 477.5,175.5 Z"/></g>
<g><path style="opacity:1" fill="#fbfbfb" d="M 63.5,178.5 C 69.8197,178.32 72.3197,181.32 71,187.5C 69.1799,190.203 66.6799,191.036 63.5,190C 60.3114,188.456 59.1447,185.956 60,182.5C 61.3756,181.295 62.5423,179.962 63.5,178.5 Z"/></g>
<g><path style="opacity:1" fill="#b14431" d="M 347.5,180.5 C 371.395,194.262 385.228,214.929 389,242.5C 393.751,309.753 363.251,350.919 297.5,366C 258.67,373.835 222.003,368.168 187.5,349C 183.025,346.35 179.025,343.183 175.5,339.5C 189.651,345.205 204.318,349.038 219.5,351C 246.549,353.827 272.882,350.827 298.5,342C 332.093,330.074 354.593,307.241 366,273.5C 375.62,239.1 369.453,208.1 347.5,180.5 Z"/></g>
<g><path style="opacity:1" fill="#f3f3f3" d="M 22.5,186.5 C 24.1667,186.5 25.8333,186.5 27.5,186.5C 38.884,218.941 52.2173,250.608 67.5,281.5C 66.4514,283.112 64.9514,284.112 63,284.5C 47.0249,254.596 33.3582,223.596 22,191.5C 21.3603,189.735 21.5269,188.068 22.5,186.5 Z"/></g>
<g><path style="opacity:1" fill="#fd8f7d" d="M 187.5,191.5 C 184.303,197.116 181.303,202.783 178.5,208.5C 163.99,215.813 157.49,227.48 159,243.5C 163.093,252.911 170.26,258.744 180.5,261C 188.881,261.787 197.214,261.454 205.5,260C 209.97,258.928 213.97,257.094 217.5,254.5C 223.119,252.396 227.785,248.896 231.5,244C 230.944,243.617 230.611,243.117 230.5,242.5C 246.487,242.874 252.82,235.207 249.5,219.5C 244.757,218.027 240.09,216.694 235.5,215.5C 235.938,215.565 236.272,215.399 236.5,215C 232.033,208.099 225.699,204.266 217.5,203.5C 225.99,202.67 234.657,202.17 243.5,202C 248.335,201.226 252.668,199.392 256.5,196.5C 265.17,203.177 273.504,210.177 281.5,217.5C 278.467,219.403 277.134,222.236 277.5,226C 278.745,237.414 285.078,242.914 296.5,242.5C 295.282,243.161 293.949,243.828 292.5,244.5C 293.462,251.108 293.795,257.774 293.5,264.5C 265.593,264.172 237.759,264.505 210,265.5C 210.405,292.067 223.238,309.4 248.5,317.5C 244.868,319.54 240.868,320.707 236.5,321C 227.5,321.667 218.5,321.667 209.5,321C 170.375,312.38 148.708,288.213 144.5,248.5C 147.153,220.534 161.487,201.534 187.5,191.5 Z"/></g>
<g><path style="opacity:1" fill="#fdd1c9" d="M 217.5,203.5 C 225.699,204.266 232.033,208.099 236.5,215C 236.272,215.399 235.938,215.565 235.5,215.5C 231.166,214.663 226.832,214.163 222.5,214C 215.377,223.232 216.043,231.898 224.5,240C 226.407,241.122 228.407,241.955 230.5,242.5C 230.611,243.117 230.944,243.617 231.5,244C 227.785,248.896 223.119,252.396 217.5,254.5C 213.97,257.094 209.97,258.928 205.5,260C 197.214,261.454 188.881,261.787 180.5,261C 170.26,258.744 163.093,252.911 159,243.5C 157.49,227.48 163.99,215.813 178.5,208.5C 177.174,212.489 175.841,216.489 174.5,220.5C 174.798,224.226 176.798,225.393 180.5,224C 190.147,212.506 202.48,205.673 217.5,203.5 Z"/></g>
<g><path style="opacity:1" fill="#050404" d="M 235.5,215.5 C 240.09,216.694 244.757,218.027 249.5,219.5C 252.82,235.207 246.487,242.874 230.5,242.5C 228.407,241.955 226.407,241.122 224.5,240C 216.043,231.898 215.377,223.232 222.5,214C 226.832,214.163 231.166,214.663 235.5,215.5 Z"/></g>
<g><path style="opacity:1" fill="#080403" d="M 296.5,242.5 C 285.078,242.914 278.745,237.414 277.5,226C 277.134,222.236 278.467,219.403 281.5,217.5C 289.06,216.148 296.56,214.481 304,212.5C 308.799,215.431 310.965,219.764 310.5,225.5C 310.772,235.312 306.105,240.978 296.5,242.5 Z"/></g>
<g><path style="opacity:1" fill="#ededed" d="M 238.5,221.5 C 244.337,220.518 247.17,222.851 247,228.5C 243.667,232.5 240.333,232.5 237,228.5C 236.391,225.935 236.891,223.601 238.5,221.5 Z"/></g>
<g><path style="opacity:1" fill="#ededed" d="M 298.5,221.5 C 304.337,220.518 307.17,222.851 307,228.5C 303.667,232.5 300.333,232.5 297,228.5C 296.391,225.935 296.891,223.601 298.5,221.5 Z"/></g>
<g><path style="opacity:1" fill="#f5175b" d="M 217.5,254.5 C 209.721,257.244 202.055,257.077 194.5,254C 191.457,249.869 192.457,246.869 197.5,245C 205.35,242.388 212.516,243.554 219,248.5C 219.748,250.84 219.248,252.84 217.5,254.5 Z"/></g>
<g><path style="opacity:1" fill="#f50a56" d="M 318.5,243.5 C 325.445,242.471 331.612,244.137 337,248.5C 336.66,252.842 334.16,255.342 329.5,256C 324.079,256.839 318.746,256.506 313.5,255C 310.898,253.446 309.731,251.28 310,248.5C 312.682,246.415 315.516,244.748 318.5,243.5 Z"/></g>
<g><path style="opacity:1" fill="#030101" d="M 293.5,264.5 C 302.085,264.183 310.585,264.517 319,265.5C 319.477,285.049 311.643,300.215 295.5,311C 280.58,318.278 264.914,320.445 248.5,317.5C 223.238,309.4 210.405,292.067 210,265.5C 237.759,264.505 265.593,264.172 293.5,264.5 Z"/></g>
<g><path style="opacity:1" fill="#ba360e" d="M 113.5,267.5 C 114.496,267.414 115.329,267.748 116,268.5C 123.333,285.833 130.667,303.167 138,320.5C 139.133,328.026 135.966,331.859 128.5,332C 126.919,331.293 125.419,330.46 124,329.5C 116.264,311.459 108.431,293.459 100.5,275.5C 104.694,272.571 109.027,269.905 113.5,267.5 Z"/></g>
<g><path style="opacity:1" fill="#efefef" d="M 228.5,270.5 C 231.833,270.5 235.167,270.5 238.5,270.5C 237.235,275.962 235.568,281.296 233.5,286.5C 231.827,281.148 230.16,275.815 228.5,270.5 Z"/></g>
<g><path style="opacity:1" fill="#f1f1f1" d="M 293.5,270.5 C 296.5,270.5 299.5,270.5 302.5,270.5C 301.478,276.251 299.978,281.918 298,287.5C 296.188,281.9 294.688,276.233 293.5,270.5 Z"/></g>
<g><path style="opacity:1" fill="#f0a598" d="M 132.5,279.5 C 132.573,281.027 131.906,282.027 130.5,282.5C 129.377,280.419 128.377,278.253 127.5,276C 132.138,269.974 133.805,271.141 132.5,279.5 Z"/></g>
<g><path style="opacity:1" fill="#f3a89a" d="M 400.5,285.5 C 398.833,284.5 397.5,283.167 396.5,281.5C 396.187,278.753 396.52,276.086 397.5,273.5C 399.833,275.333 402.167,277.167 404.5,279C 402.779,280.944 401.446,283.11 400.5,285.5 Z"/></g>
<g><path style="opacity:1" fill="#fcf2ef" d="M 109.5,277.5 C 114.328,277.385 115.661,279.552 113.5,284C 108.57,284.427 107.237,282.26 109.5,277.5 Z"/></g>
<g><path style="opacity:1" fill="#cc5039" d="M 132.5,279.5 C 134.421,286.772 136.254,294.105 138,301.5C 135.396,295.182 132.896,288.849 130.5,282.5C 131.906,282.027 132.573,281.027 132.5,279.5 Z"/></g>
<g><path style="opacity:1" fill="#d8543d" d="M 396.5,281.5 C 397.5,283.167 398.833,284.5 400.5,285.5C 397.161,291.022 393.994,296.689 391,302.5C 392.372,295.345 394.205,288.345 396.5,281.5 Z"/></g>
<g><path style="opacity:1" fill="#fbf1ee" d="M 116.5,292.5 C 121.328,292.385 122.661,294.552 120.5,299C 114.738,299.418 113.404,297.251 116.5,292.5 Z"/></g>
<g><path style="opacity:1" fill="#b7350d" d="M 394.5,334.5 C 393.343,330.784 393.343,327.117 394.5,323.5C 400.364,321.746 401.864,318.079 399,312.5C 397.887,311.695 396.721,311.028 395.5,310.5C 396.167,309.167 396.833,307.833 397.5,306.5C 405.939,310.367 409.772,307.701 409,298.5C 407.871,296.859 406.371,295.859 404.5,295.5C 405.391,293.391 406.558,291.391 408,289.5C 412.917,292.375 417.751,295.375 422.5,298.5C 416.586,309.33 410.419,319.997 404,330.5C 401.569,334.318 398.402,335.652 394.5,334.5 Z"/></g>
<g><path style="opacity:1" fill="#f8f3f2" d="M 404.5,295.5 C 406.371,295.859 407.871,296.859 409,298.5C 409.772,307.701 405.939,310.367 397.5,306.5C 399.597,302.628 401.931,298.961 404.5,295.5 Z"/></g>
<g><path style="opacity:1" fill="#b9202d" d="M 278.5,300.5 C 276.5,300.5 274.5,300.5 272.5,300.5C 272.564,304.062 274.397,305.729 278,305.5C 281.711,305.973 282.878,304.639 281.5,301.5C 284.827,301.986 287.161,303.82 288.5,307C 287.318,308.735 285.651,309.735 283.5,310C 271.575,312.886 259.575,313.219 247.5,311C 239.578,307.945 239.578,304.612 247.5,301C 256.677,298.562 266.011,297.896 275.5,299C 276.737,299.232 277.737,299.732 278.5,300.5 Z"/></g>
<g><path style="opacity:1" fill="#f2a699" d="M 104.5,305.5 C 102.322,307.858 100.655,310.525 99.5,313.5C 98.0134,308.825 98.3467,304.159 100.5,299.5C 101.167,298.167 101.833,298.167 102.5,299.5C 103.747,301.323 104.414,303.323 104.5,305.5 Z"/></g>
<g><path style="opacity:1" fill="#fcf4f4" d="M 278.5,300.5 C 279.391,301.11 280.391,301.443 281.5,301.5C 282.878,304.639 281.711,305.973 278,305.5C 274.397,305.729 272.564,304.062 272.5,300.5C 274.5,300.5 276.5,300.5 278.5,300.5 Z"/></g>
<g><path style="opacity:1" fill="#f6a697" d="M 429.5,313.5 C 428.512,312.205 427.512,310.872 426.5,309.5C 426.795,307.577 427.628,305.91 429,304.5C 429.498,307.482 429.665,310.482 429.5,313.5 Z"/></g>
<g><path style="opacity:1" fill="#f66045" d="M 104.5,305.5 C 107.345,310.531 109.678,315.864 111.5,321.5C 110.399,322.598 109.066,322.765 107.5,322C 105.266,320.25 102.932,318.75 100.5,317.5C 99.7659,316.292 99.4326,314.959 99.5,313.5C 100.655,310.525 102.322,307.858 104.5,305.5 Z"/></g>
<g><path style="opacity:1" fill="#f6d9db" d="M 281.5,307.5 C 282.708,306.218 284.042,306.218 285.5,307.5C 284.192,308.626 282.858,308.626 281.5,307.5 Z"/></g>
<g><path style="opacity:1" fill="#fbf1ed" d="M 122.5,307.5 C 128.016,307.473 129.349,309.64 126.5,314C 121.57,314.427 120.237,312.26 122.5,307.5 Z"/></g>
<g><path style="opacity:1" fill="#f05d43" d="M 426.5,309.5 C 427.512,310.872 428.512,312.205 429.5,313.5C 428.739,317.365 426.739,320.365 423.5,322.5C 421.666,323.494 419.999,323.494 418.5,322.5C 420.429,317.628 423.095,313.295 426.5,309.5 Z"/></g>
<g><path style="opacity:1" fill="#f8f3f2" d="M 395.5,310.5 C 396.721,311.028 397.887,311.695 399,312.5C 401.864,318.079 400.364,321.746 394.5,323.5C 392.447,323.598 390.78,322.931 389.5,321.5C 391.25,317.665 393.25,313.999 395.5,310.5 Z"/></g>
<g><path style="opacity:1" fill="#a13e2d" d="M 100.5,317.5 C 102.932,318.75 105.266,320.25 107.5,322C 109.066,322.765 110.399,322.598 111.5,321.5C 112.391,323.291 113.391,325.124 114.5,327C 110.798,326.824 107.465,325.49 104.5,323C 102.561,321.568 101.228,319.735 100.5,317.5 Z"/></g>
<g><path style="opacity:1" fill="#972d0e" d="M 389.5,321.5 C 390.78,322.931 392.447,323.598 394.5,323.5C 393.343,327.117 393.343,330.784 394.5,334.5C 387.504,332.136 385.837,327.803 389.5,321.5 Z"/></g>
<g><path style="opacity:1" fill="#a23e2d" d="M 418.5,322.5 C 419.999,323.494 421.666,323.494 423.5,322.5C 421.488,325.335 418.821,326.835 415.5,327C 416.399,325.348 417.399,323.848 418.5,322.5 Z"/></g>
<g><path style="opacity:1" fill="#fc6246" d="M 203.5,366.5 C 218.875,372.62 234.875,375.953 251.5,376.5C 251.677,380.234 251.344,383.901 250.5,387.5C 244.397,395.489 236.23,399.156 226,398.5C 216.675,399.249 208.842,396.249 202.5,389.5C 202.5,388.5 202.5,387.5 202.5,386.5C 202.176,379.646 202.509,372.979 203.5,366.5 Z"/></g>
<g><path style="opacity:1" fill="#fb6146" d="M 326.5,390.5 C 320.023,397.399 312.023,400.399 302.5,399.5C 293.155,400.61 285.488,397.61 279.5,390.5C 278.962,388.883 278.629,387.216 278.5,385.5C 278.091,382.145 278.758,379.145 280.5,376.5C 296.608,375.313 312.108,371.646 327,365.5C 327.705,373.861 327.538,382.194 326.5,390.5 Z"/></g>
<g><path style="opacity:1" fill="#803223" d="M 203.5,366.5 C 202.509,372.979 202.176,379.646 202.5,386.5C 201.181,379.656 201.181,372.656 202.5,365.5C 203.107,365.624 203.44,365.957 203.5,366.5 Z"/></g>
<g><path style="opacity:1" fill="#6c2a1e" d="M 280.5,376.5 C 278.758,379.145 278.091,382.145 278.5,385.5C 277.523,382.713 277.19,379.713 277.5,376.5C 278.5,376.5 279.5,376.5 280.5,376.5 Z"/></g>
<g><path style="opacity:1" fill="#ae4330" d="M 250.5,387.5 C 249.158,402.338 240.992,409.672 226,409.5C 212.192,409.699 204.358,403.032 202.5,389.5C 208.842,396.249 216.675,399.249 226,398.5C 236.23,399.156 244.397,395.489 250.5,387.5 Z"/></g>
<g><path style="opacity:1" fill="#ae4330" d="M 279.5,390.5 C 285.488,397.61 293.155,400.61 302.5,399.5C 312.023,400.399 320.023,397.399 326.5,390.5C 325.441,401.394 319.441,407.56 308.5,409C 300.616,410.403 293.283,409.07 286.5,405C 282.154,401.142 279.821,396.308 279.5,390.5 Z"/></g>
</svg>
